<svg width="22" height="23" viewBox="0 0 22 23" fill="none" xmlns="http://www.w3.org/2000/svg">
<path d="M13.445 20.483V15.283C13.445 15.0532 13.3537 14.8327 13.1911 14.6702C13.0286 14.5077 12.8082 14.4164 12.5783 14.4164H9.11177C8.88192 14.4164 8.66149 14.5077 8.49896 14.6702C8.33643 14.8327 8.24513 15.0532 8.24513 15.283V20.483C8.24513 20.7128 8.15383 20.9332 7.99133 21.0957C7.82883 21.2583 7.60842 21.3496 7.37859 21.3496L2.17937 21.3503C2.06555 21.3503 1.95285 21.3279 1.84769 21.2844C1.74253 21.2408 1.64698 21.177 1.56649 21.0965C1.48601 21.016 1.42216 20.9205 1.3786 20.8153C1.33504 20.7102 1.31262 20.5975 1.31262 20.4837V10.4674C1.31262 10.3467 1.33785 10.2272 1.38669 10.1168C1.43553 10.0064 1.50691 9.90741 1.59624 9.82618L10.2621 1.9468C10.4216 1.80176 10.6295 1.72138 10.8451 1.72137C11.0607 1.72137 11.2685 1.80173 11.4281 1.94676L20.0951 9.82618C20.1844 9.90741 20.2558 10.0064 20.3047 10.1168C20.3535 10.2273 20.3788 10.3467 20.3788 10.4674V20.4837C20.3788 20.5975 20.3563 20.7102 20.3128 20.8153C20.2692 20.9205 20.2054 21.016 20.1249 21.0965C20.0444 21.177 19.9488 21.2408 19.8437 21.2844C19.7385 21.3279 19.6258 21.3503 19.512 21.3503L14.3115 21.3496C14.0817 21.3496 13.8613 21.2583 13.6988 21.0958C13.5363 20.9332 13.445 20.7128 13.445 20.483V20.483Z" stroke="#D22238" stroke-width="1.8" stroke-linecap="round" stroke-linejoin="round"/>
</svg>
