<svg width="24" height="21" viewBox="0 0 24 21" fill="none" xmlns="http://www.w3.org/2000/svg">
<path d="M12.6972 7.42133H5.74503V8.68939H12.6972V7.42133Z" fill="#D22238"/>
<path d="M14.8795 10.4882H5.74503V11.7489H14.8795V10.4882Z" fill="#D22238"/>
<path d="M14.8795 13.5478H5.74503V14.8159H14.8795V13.5478Z" fill="#D22238"/>
<path d="M21.2714 0.424866H2.53065C1.16675 0.424866 0.0608826 1.53073 0.0608826 2.89463V10.6209C0.0608826 11.9332 1.12989 13.0022 2.44218 13.0022C2.84029 13.0022 3.23103 12.9064 3.56279 12.7221V20.2051C3.56279 20.6032 3.88718 20.9276 4.28529 20.9276H19.5241C19.8632 20.9276 20.136 20.6548 20.136 20.3157V12.7073C20.4678 12.8843 20.8512 13.017 21.3156 13.0096C22.591 12.9727 23.6306 11.8595 23.6306 10.5325V2.78404C23.6306 1.47912 22.5689 0.424866 21.2714 0.424866ZM18.868 6.29332V19.6669H4.82348V6.28595C4.82348 6.16062 4.92669 6.06478 5.04465 6.06478H18.6394C18.7648 6.06478 18.868 6.16799 18.868 6.29332ZM2.68547 4.79672V6.06478H3.56279V10.5251C3.56279 11.137 3.15731 11.6531 2.61175 11.7342C2.27999 11.7858 1.96297 11.6899 1.71968 11.4761C1.47639 11.2623 1.32894 10.9527 1.32894 10.6283V2.79142C1.32894 2.18688 1.82289 1.69292 2.42743 1.69292H21.2714C21.8759 1.69292 22.3699 2.18688 22.3699 2.79142V10.6283C22.3699 10.9527 22.2298 11.2623 21.9791 11.4761C21.7285 11.6899 21.4115 11.7858 21.0871 11.7342C20.5415 11.6531 20.136 11.137 20.136 10.5251V6.06478H21.0133V4.79672H2.68547Z" fill="#D22238"/>
</svg>
