<svg width="14" height="15" viewBox="0 0 14 15" fill="none" xmlns="http://www.w3.org/2000/svg">
<path d="M13.2815 14.1028L13.2879 9.21838C13.2879 6.82683 12.7989 4.98926 10.1352 4.98926C8.85484 4.98926 7.99911 5.72564 7.64523 6.42824H7.60663V5.20544H5.08447V14.0961H7.70958V9.69804C7.70958 8.53604 7.9219 7.41458 9.28592 7.41458C10.6306 7.41458 10.6564 8.73872 10.6564 9.77235V14.1028H13.2815Z" fill="black"/>
<path d="M3.44404 5.20508H0.8125V14.0957H3.44404V5.20508Z" fill="black"/>
<path d="M2.12497 0.780273C1.28211 0.780273 0.600098 1.49639 0.600098 2.38139C0.600098 3.2664 1.28211 3.99603 2.12497 3.99603C2.96783 3.99603 3.64984 3.2664 3.64984 2.38139C3.64984 1.49639 2.96783 0.780273 2.12497 0.780273Z" fill="black"/>
</svg>
