<svg width="15" height="15" viewBox="0 0 15 15" fill="none" xmlns="http://www.w3.org/2000/svg">
<path d="M12.4944 0.780273H2.50515C1.55346 0.780273 0.779785 1.48548 0.779785 2.50563V12.4949C0.779785 13.5151 1.55346 14.2203 2.50515 14.2203H12.4944C13.4461 14.2203 14.2198 13.5151 14.2198 12.4949V2.50563C14.2198 1.48548 13.4461 0.780273 12.4944 0.780273ZM9.968 2.8822C9.968 2.54671 10.2419 2.27969 10.5705 2.27969H12.0905C12.426 2.27969 12.693 2.55356 12.693 2.8822V4.33369C12.693 4.66918 12.4191 4.9362 12.0905 4.9362H10.5705C10.235 4.9362 9.968 4.66233 9.968 4.33369V2.8822ZM7.5169 4.86088C9.00947 4.86088 10.2145 6.03166 10.2145 7.47631C10.2145 8.92095 9.00262 10.0917 7.5169 10.0917C6.02432 10.0917 4.81931 8.92095 4.81931 7.47631C4.81931 6.03166 6.02432 4.86088 7.5169 4.86088ZM12.6998 12.1457C12.6998 12.4401 12.4602 12.6798 12.1658 12.6798H2.8064C2.51199 12.6798 2.27236 12.4401 2.27236 12.1457V6.463H3.50475C3.39521 6.82588 3.33359 7.21614 3.33359 7.61324C3.33359 9.8521 5.20273 11.6596 7.51005 11.6596C9.81738 11.6596 11.6865 9.84525 11.6865 7.61324C11.6865 7.21614 11.6249 6.82588 11.5154 6.463H12.6998V12.1457Z" fill="black"/>
</svg>
