<svg width="23" height="23" viewBox="0 0 23 23" fill="none" xmlns="http://www.w3.org/2000/svg">
<path d="M7.26492 11.6518C8.14627 13.4536 9.60682 14.9075 11.4127 15.7806C11.5448 15.8433 11.6909 15.8704 11.8367 15.8594C11.9825 15.8483 12.1229 15.7995 12.2441 15.7177L14.9031 13.9447C15.0207 13.8663 15.156 13.8184 15.2967 13.8055C15.4375 13.7926 15.5792 13.815 15.7091 13.8706L20.6835 16.0025C20.8525 16.0743 20.9936 16.1991 21.0855 16.358C21.1774 16.5169 21.2152 16.7014 21.1932 16.8837C21.0359 18.114 20.4357 19.2448 19.5047 20.0644C18.5738 20.884 17.376 21.3361 16.1357 21.3362C12.3049 21.3362 8.63097 19.8144 5.92217 17.1056C3.21338 14.3968 1.69159 10.7229 1.69159 6.89208C1.69165 5.65177 2.14381 4.45401 2.96339 3.52308C3.78298 2.59214 4.91379 1.99185 6.14409 1.83463C6.32636 1.81257 6.51086 1.85034 6.66979 1.94226C6.82872 2.03417 6.95347 2.17525 7.02526 2.34423L9.159 7.32297C9.21419 7.45175 9.23668 7.59218 9.22447 7.73176C9.21225 7.87133 9.16571 8.00572 9.08898 8.12295L7.32208 10.8227C7.24167 10.9441 7.19413 11.0844 7.18411 11.2297C7.17409 11.375 7.20193 11.5204 7.26492 11.6518Z" stroke="#D22238" stroke-width="1.8" stroke-linecap="round" stroke-linejoin="round"/>
</svg>
