<svg width="17" height="14" viewBox="0 0 17 14" fill="none" xmlns="http://www.w3.org/2000/svg">
<path d="M14.8452 4.02918L14.8533 4.45154C14.8533 8.78883 11.5593 13.8003 5.53787 13.8003C3.6926 13.8003 1.96872 13.2561 0.52002 12.3139C0.770912 12.3464 1.0299 12.3626 1.29698 12.3626C2.8347 12.3626 4.24294 11.8347 5.35982 10.9494C3.9273 10.925 2.7214 9.97469 2.30054 8.667C2.50288 8.70761 2.70521 8.72386 2.91564 8.72386C3.21509 8.72386 3.50645 8.68324 3.77353 8.61014C2.27626 8.30962 1.1513 6.98569 1.1513 5.39372V5.36123C1.58834 5.6049 2.09012 5.7511 2.63237 5.76735C1.75829 5.18254 1.18367 4.16726 1.18367 3.03826C1.18367 2.43722 1.34554 1.86866 1.6288 1.38132C3.23128 3.37128 5.65118 4.67084 8.37053 4.80892C8.31387 4.57337 8.28959 4.32158 8.28959 4.06167C8.28959 2.2504 9.74639 0.780273 11.5593 0.780273C12.4981 0.780273 13.356 1.17826 13.9549 1.8118C14.6914 1.6656 15.3955 1.39757 16.0349 1.02394C15.7921 1.78744 15.2741 2.43722 14.5943 2.84333C15.2579 2.76211 15.8892 2.58342 16.48 2.32351C16.0349 2.98141 15.4765 3.56621 14.8452 4.02918Z" fill="black"/>
</svg>
